<svg width="197" height="30" viewBox="0 0 197 30" fill="none" xmlns="http://www.w3.org/2000/svg">
<path d="M45.6133 22H42.2148V8.19531C42.2148 7.23438 42.4023 6.42578 42.7773 5.76953C43.1602 5.10547 43.6953 4.60547 44.3828 4.26953C45.0781 3.92578 45.9023 3.75391 46.8555 3.75391C47.168 3.75391 47.4688 3.77734 47.7578 3.82422C48.0469 3.86328 48.3281 3.91406 48.6016 3.97656L48.5664 6.51953C48.418 6.48047 48.2617 6.45312 48.0977 6.4375C47.9336 6.42188 47.7422 6.41406 47.5234 6.41406C47.1172 6.41406 46.7695 6.48438 46.4805 6.625C46.1992 6.75781 45.9844 6.95703 45.8359 7.22266C45.6875 7.48828 45.6133 7.8125 45.6133 8.19531V22ZM48.1445 9.32031V11.7109H40.3281V9.32031H48.1445ZM49.375 15.7891V15.543C49.375 14.6133 49.5078 13.7578 49.7734 12.9766C50.0391 12.1875 50.4258 11.5039 50.9336 10.9258C51.4414 10.3477 52.0664 9.89844 52.8086 9.57812C53.5508 9.25 54.4023 9.08594 55.3633 9.08594C56.3242 9.08594 57.1797 9.25 57.9297 9.57812C58.6797 9.89844 59.3086 10.3477 59.8164 10.9258C60.332 11.5039 60.7227 12.1875 60.9883 12.9766C61.2539 13.7578 61.3867 14.6133 61.3867 15.543V15.7891C61.3867 16.7109 61.2539 17.5664 60.9883 18.3555C60.7227 19.1367 60.332 19.8203 59.8164 20.4062C59.3086 20.9844 58.6836 21.4336 57.9414 21.7539C57.1992 22.0742 56.3477 22.2344 55.3867 22.2344C54.4258 22.2344 53.5703 22.0742 52.8203 21.7539C52.0781 21.4336 51.4492 20.9844 50.9336 20.4062C50.4258 19.8203 50.0391 19.1367 49.7734 18.3555C49.5078 17.5664 49.375 16.7109 49.375 15.7891ZM52.75 15.543V15.7891C52.75 16.3203 52.7969 16.8164 52.8906 17.2773C52.9844 17.7383 53.1328 18.1445 53.3359 18.4961C53.5469 18.8398 53.8203 19.1094 54.1562 19.3047C54.4922 19.5 54.9023 19.5977 55.3867 19.5977C55.8555 19.5977 56.2578 19.5 56.5938 19.3047C56.9297 19.1094 57.1992 18.8398 57.4023 18.4961C57.6055 18.1445 57.7539 17.7383 57.8477 17.2773C57.9492 16.8164 58 16.3203 58 15.7891V15.543C58 15.0273 57.9492 14.543 57.8477 14.0898C57.7539 13.6289 57.6016 13.2227 57.3906 12.8711C57.1875 12.5117 56.918 12.2305 56.582 12.0273C56.2461 11.8242 55.8398 11.7227 55.3633 11.7227C54.8867 11.7227 54.4805 11.8242 54.1445 12.0273C53.8164 12.2305 53.5469 12.5117 53.3359 12.8711C53.1328 13.2227 52.9844 13.6289 52.8906 14.0898C52.7969 14.543 52.75 15.0273 52.75 15.543ZM62.9219 15.7891V15.543C62.9219 14.6133 63.0547 13.7578 63.3203 12.9766C63.5859 12.1875 63.9727 11.5039 64.4805 10.9258C64.9883 10.3477 65.6133 9.89844 66.3555 9.57812C67.0977 9.25 67.9492 9.08594 68.9102 9.08594C69.8711 9.08594 70.7266 9.25 71.4766 9.57812C72.2266 9.89844 72.8555 10.3477 73.3633 10.9258C73.8789 11.5039 74.2695 12.1875 74.5352 12.9766C74.8008 13.7578 74.9336 14.6133 74.9336 15.543V15.7891C74.9336 16.7109 74.8008 17.5664 74.5352 18.3555C74.2695 19.1367 73.8789 19.8203 73.3633 20.4062C72.8555 20.9844 72.2305 21.4336 71.4883 21.7539C70.7461 22.0742 69.8945 22.2344 68.9336 22.2344C67.9727 22.2344 67.1172 22.0742 66.3672 21.7539C65.625 21.4336 64.9961 20.9844 64.4805 20.4062C63.9727 19.8203 63.5859 19.1367 63.3203 18.3555C63.0547 17.5664 62.9219 16.7109 62.9219 15.7891ZM66.2969 15.543V15.7891C66.2969 16.3203 66.3438 16.8164 66.4375 17.2773C66.5312 17.7383 66.6797 18.1445 66.8828 18.4961C67.0938 18.8398 67.3672 19.1094 67.7031 19.3047C68.0391 19.5 68.4492 19.5977 68.9336 19.5977C69.4023 19.5977 69.8047 19.5 70.1406 19.3047C70.4766 19.1094 70.7461 18.8398 70.9492 18.4961C71.1523 18.1445 71.3008 17.7383 71.3945 17.2773C71.4961 16.8164 71.5469 16.3203 71.5469 15.7891V15.543C71.5469 15.0273 71.4961 14.543 71.3945 14.0898C71.3008 13.6289 71.1484 13.2227 70.9375 12.8711C70.7344 12.5117 70.4648 12.2305 70.1289 12.0273C69.793 11.8242 69.3867 11.7227 68.9102 11.7227C68.4336 11.7227 68.0273 11.8242 67.6914 12.0273C67.3633 12.2305 67.0938 12.5117 66.8828 12.8711C66.6797 13.2227 66.5312 13.6289 66.4375 14.0898C66.3438 14.543 66.2969 15.0273 66.2969 15.543ZM84.4961 19.2344V4H87.8945V22H84.8359L84.4961 19.2344ZM76.4805 15.8125V15.5664C76.4805 14.5977 76.5898 13.7188 76.8086 12.9297C77.0273 12.1328 77.3477 11.4492 77.7695 10.8789C78.1914 10.3086 78.7109 9.86719 79.3281 9.55469C79.9453 9.24219 80.6484 9.08594 81.4375 9.08594C82.1797 9.08594 82.8281 9.24219 83.3828 9.55469C83.9453 9.86719 84.4219 10.3125 84.8125 10.8906C85.2109 11.4609 85.5312 12.1367 85.7734 12.918C86.0156 13.6914 86.1914 14.5391 86.3008 15.4609V16C86.1914 16.8828 86.0156 17.7031 85.7734 18.4609C85.5312 19.2188 85.2109 19.8828 84.8125 20.4531C84.4219 21.0156 83.9453 21.4531 83.3828 21.7656C82.8203 22.0781 82.1641 22.2344 81.4141 22.2344C80.625 22.2344 79.9219 22.0742 79.3047 21.7539C78.6953 21.4336 78.1797 20.9844 77.7578 20.4062C77.3438 19.8281 77.0273 19.1484 76.8086 18.3672C76.5898 17.5859 76.4805 16.7344 76.4805 15.8125ZM79.8555 15.5664V15.8125C79.8555 16.3359 79.8945 16.8242 79.9727 17.2773C80.0586 17.7305 80.1953 18.1328 80.3828 18.4844C80.5781 18.8281 80.8281 19.0977 81.1328 19.293C81.4453 19.4805 81.8242 19.5742 82.2695 19.5742C82.8477 19.5742 83.3242 19.4453 83.6992 19.1875C84.0742 18.9219 84.3594 18.5586 84.5547 18.0977C84.7578 17.6367 84.875 17.1055 84.9062 16.5039V14.9688C84.8828 14.4766 84.8125 14.0352 84.6953 13.6445C84.5859 13.2461 84.4219 12.9062 84.2031 12.625C83.9922 12.3438 83.7266 12.125 83.4062 11.9688C83.0938 11.8125 82.7227 11.7344 82.293 11.7344C81.8555 11.7344 81.4805 11.8359 81.168 12.0391C80.8555 12.2344 80.6016 12.5039 80.4062 12.8477C80.2188 13.1914 80.0781 13.5977 79.9844 14.0664C79.8984 14.5273 79.8555 15.0273 79.8555 15.5664ZM102.344 22.2344C101.359 22.2344 100.477 22.0781 99.6953 21.7656C98.9141 21.4453 98.25 21.0039 97.7031 20.4414C97.1641 19.8789 96.75 19.2266 96.4609 18.4844C96.1719 17.7344 96.0273 16.9375 96.0273 16.0938V15.625C96.0273 14.6641 96.1641 13.7852 96.4375 12.9883C96.7109 12.1914 97.1016 11.5 97.6094 10.9141C98.125 10.3281 98.75 9.87891 99.4844 9.56641C100.219 9.24609 101.047 9.08594 101.969 9.08594C102.867 9.08594 103.664 9.23438 104.359 9.53125C105.055 9.82812 105.637 10.25 106.105 10.7969C106.582 11.3438 106.941 12 107.184 12.7656C107.426 13.5234 107.547 14.3672 107.547 15.2969V16.7031H97.4688V14.4531H104.23V14.1953C104.23 13.7266 104.145 13.3086 103.973 12.9414C103.809 12.5664 103.559 12.2695 103.223 12.0508C102.887 11.832 102.457 11.7227 101.934 11.7227C101.488 11.7227 101.105 11.8203 100.785 12.0156C100.465 12.2109 100.203 12.4844 100 12.8359C99.8047 13.1875 99.6562 13.6016 99.5547 14.0781C99.4609 14.5469 99.4141 15.0625 99.4141 15.625V16.0938C99.4141 16.6016 99.4844 17.0703 99.625 17.5C99.7734 17.9297 99.9805 18.3008 100.246 18.6133C100.52 18.9258 100.848 19.168 101.23 19.3398C101.621 19.5117 102.062 19.5977 102.555 19.5977C103.164 19.5977 103.73 19.4805 104.254 19.2461C104.785 19.0039 105.242 18.6406 105.625 18.1562L107.266 19.9375C107 20.3203 106.637 20.6875 106.176 21.0391C105.723 21.3906 105.176 21.6797 104.535 21.9062C103.895 22.125 103.164 22.2344 102.344 22.2344ZM112.188 9.32031L114.285 13.1758L116.441 9.32031H120.039L116.453 15.5195L120.203 22H116.594L114.309 17.9219L112.023 22H108.414L112.164 15.5195L108.578 9.32031H112.188ZM125.055 11.7578V26.875H121.68V9.32031H124.809L125.055 11.7578ZM133.082 15.5195V15.7656C133.082 16.6875 132.973 17.543 132.754 18.332C132.543 19.1211 132.23 19.8086 131.816 20.3945C131.402 20.9727 130.887 21.4258 130.27 21.7539C129.66 22.0742 128.957 22.2344 128.16 22.2344C127.387 22.2344 126.715 22.0781 126.145 21.7656C125.574 21.4531 125.094 21.0156 124.703 20.4531C124.32 19.8828 124.012 19.2227 123.777 18.4727C123.543 17.7227 123.363 16.918 123.238 16.0586V15.4141C123.363 14.4922 123.543 13.6484 123.777 12.8828C124.012 12.1094 124.32 11.4414 124.703 10.8789C125.094 10.3086 125.57 9.86719 126.133 9.55469C126.703 9.24219 127.371 9.08594 128.137 9.08594C128.941 9.08594 129.648 9.23828 130.258 9.54297C130.875 9.84766 131.391 10.2852 131.805 10.8555C132.227 11.4258 132.543 12.1055 132.754 12.8945C132.973 13.6836 133.082 14.5586 133.082 15.5195ZM129.695 15.7656V15.5195C129.695 14.9805 129.648 14.4844 129.555 14.0312C129.469 13.5703 129.328 13.168 129.133 12.8242C128.945 12.4805 128.695 12.2148 128.383 12.0273C128.078 11.832 127.707 11.7344 127.27 11.7344C126.809 11.7344 126.414 11.8086 126.086 11.957C125.766 12.1055 125.504 12.3203 125.301 12.6016C125.098 12.8828 124.945 13.2188 124.844 13.6094C124.742 14 124.68 14.4414 124.656 14.9336V16.5625C124.695 17.1406 124.805 17.6602 124.984 18.1211C125.164 18.5742 125.441 18.9336 125.816 19.1992C126.191 19.4648 126.684 19.5977 127.293 19.5977C127.738 19.5977 128.113 19.5 128.418 19.3047C128.723 19.1016 128.969 18.8242 129.156 18.4727C129.352 18.1211 129.488 17.7148 129.566 17.2539C129.652 16.793 129.695 16.2969 129.695 15.7656ZM138.742 4V22H135.355V4H138.742ZM140.992 15.7891V15.543C140.992 14.6133 141.125 13.7578 141.391 12.9766C141.656 12.1875 142.043 11.5039 142.551 10.9258C143.059 10.3477 143.684 9.89844 144.426 9.57812C145.168 9.25 146.02 9.08594 146.98 9.08594C147.941 9.08594 148.797 9.25 149.547 9.57812C150.297 9.89844 150.926 10.3477 151.434 10.9258C151.949 11.5039 152.34 12.1875 152.605 12.9766C152.871 13.7578 153.004 14.6133 153.004 15.543V15.7891C153.004 16.7109 152.871 17.5664 152.605 18.3555C152.34 19.1367 151.949 19.8203 151.434 20.4062C150.926 20.9844 150.301 21.4336 149.559 21.7539C148.816 22.0742 147.965 22.2344 147.004 22.2344C146.043 22.2344 145.188 22.0742 144.438 21.7539C143.695 21.4336 143.066 20.9844 142.551 20.4062C142.043 19.8203 141.656 19.1367 141.391 18.3555C141.125 17.5664 140.992 16.7109 140.992 15.7891ZM144.367 15.543V15.7891C144.367 16.3203 144.414 16.8164 144.508 17.2773C144.602 17.7383 144.75 18.1445 144.953 18.4961C145.164 18.8398 145.438 19.1094 145.773 19.3047C146.109 19.5 146.52 19.5977 147.004 19.5977C147.473 19.5977 147.875 19.5 148.211 19.3047C148.547 19.1094 148.816 18.8398 149.02 18.4961C149.223 18.1445 149.371 17.7383 149.465 17.2773C149.566 16.8164 149.617 16.3203 149.617 15.7891V15.543C149.617 15.0273 149.566 14.543 149.465 14.0898C149.371 13.6289 149.219 13.2227 149.008 12.8711C148.805 12.5117 148.535 12.2305 148.199 12.0273C147.863 11.8242 147.457 11.7227 146.98 11.7227C146.504 11.7227 146.098 11.8242 145.762 12.0273C145.434 12.2305 145.164 12.5117 144.953 12.8711C144.75 13.2227 144.602 13.6289 144.508 14.0898C144.414 14.543 144.367 15.0273 144.367 15.543ZM158.453 12.0859V22H155.078V9.32031H158.254L158.453 12.0859ZM162.273 9.23828L162.215 12.3672C162.051 12.3438 161.852 12.3242 161.617 12.3086C161.391 12.2852 161.184 12.2734 160.996 12.2734C160.52 12.2734 160.105 12.3359 159.754 12.4609C159.41 12.5781 159.121 12.7539 158.887 12.9883C158.66 13.2227 158.488 13.5078 158.371 13.8438C158.262 14.1797 158.199 14.5625 158.184 14.9922L157.504 14.7812C157.504 13.9609 157.586 13.207 157.75 12.5195C157.914 11.8242 158.152 11.2188 158.465 10.7031C158.785 10.1875 159.176 9.78906 159.637 9.50781C160.098 9.22656 160.625 9.08594 161.219 9.08594C161.406 9.08594 161.598 9.10156 161.793 9.13281C161.988 9.15625 162.148 9.19141 162.273 9.23828ZM169.469 22.2344C168.484 22.2344 167.602 22.0781 166.82 21.7656C166.039 21.4453 165.375 21.0039 164.828 20.4414C164.289 19.8789 163.875 19.2266 163.586 18.4844C163.297 17.7344 163.152 16.9375 163.152 16.0938V15.625C163.152 14.6641 163.289 13.7852 163.562 12.9883C163.836 12.1914 164.227 11.5 164.734 10.9141C165.25 10.3281 165.875 9.87891 166.609 9.56641C167.344 9.24609 168.172 9.08594 169.094 9.08594C169.992 9.08594 170.789 9.23438 171.484 9.53125C172.18 9.82812 172.762 10.25 173.23 10.7969C173.707 11.3438 174.066 12 174.309 12.7656C174.551 13.5234 174.672 14.3672 174.672 15.2969V16.7031H164.594V14.4531H171.355V14.1953C171.355 13.7266 171.27 13.3086 171.098 12.9414C170.934 12.5664 170.684 12.2695 170.348 12.0508C170.012 11.832 169.582 11.7227 169.059 11.7227C168.613 11.7227 168.23 11.8203 167.91 12.0156C167.59 12.2109 167.328 12.4844 167.125 12.8359C166.93 13.1875 166.781 13.6016 166.68 14.0781C166.586 14.5469 166.539 15.0625 166.539 15.625V16.0938C166.539 16.6016 166.609 17.0703 166.75 17.5C166.898 17.9297 167.105 18.3008 167.371 18.6133C167.645 18.9258 167.973 19.168 168.355 19.3398C168.746 19.5117 169.188 19.5977 169.68 19.5977C170.289 19.5977 170.855 19.4805 171.379 19.2461C171.91 19.0039 172.367 18.6406 172.75 18.1562L174.391 19.9375C174.125 20.3203 173.762 20.6875 173.301 21.0391C172.848 21.3906 172.301 21.6797 171.66 21.9062C171.02 22.125 170.289 22.2344 169.469 22.2344ZM179.969 12.0859V22H176.594V9.32031H179.77L179.969 12.0859ZM183.789 9.23828L183.73 12.3672C183.566 12.3438 183.367 12.3242 183.133 12.3086C182.906 12.2852 182.699 12.2734 182.512 12.2734C182.035 12.2734 181.621 12.3359 181.27 12.4609C180.926 12.5781 180.637 12.7539 180.402 12.9883C180.176 13.2227 180.004 13.5078 179.887 13.8438C179.777 14.1797 179.715 14.5625 179.699 14.9922L179.02 14.7812C179.02 13.9609 179.102 13.207 179.266 12.5195C179.43 11.8242 179.668 11.2188 179.98 10.7031C180.301 10.1875 180.691 9.78906 181.152 9.50781C181.613 9.22656 182.141 9.08594 182.734 9.08594C182.922 9.08594 183.113 9.10156 183.309 9.13281C183.504 9.15625 183.664 9.19141 183.789 9.23828Z" fill="white"/>
<path d="M15 0L27.9904 7.5V22.5L15 30L2.00962 22.5V7.5L15 0Z" fill="#065E7C"/>
</svg>
